<?xml version="1.0" standalone="no"?>
<!DOCTYPE svg PUBLIC "-//W3C//DTD SVG 20010904//EN"
 "http://www.w3.org/TR/2001/REC-SVG-20010904/DTD/svg10.dtd">
<svg version="1.0" xmlns="http://www.w3.org/2000/svg"
 width="150.000000pt" height="150.000000pt" viewBox="0 0 150.000000 150.000000"
 preserveAspectRatio="xMidYMid meet">
<metadata>
Created by potrace 1.14, written by Peter Selinger 2001-2017
</metadata>
<g transform="translate(0.000000,150.000000) scale(0.100000,-0.100000)"
fill="#000000" stroke="none">
<path d="M795 1281 c-88 -23 -170 -91 -208 -173 l-21 -47 -70 1 c-58 1 -73 5
-92 25 -31 31 -78 30 -109 -2 -14 -13 -25 -31 -25 -40 0 -10 -7 -15 -17 -14
-23 4 -63 -10 -63 -21 0 -5 -15 -16 -34 -25 -34 -16 -44 -30 -52 -71 -5 -29
38 -74 71 -74 l26 0 -24 -32 c-29 -39 -45 -85 -41 -113 2 -11 5 -33 6 -50 4
-49 78 -109 143 -118 22 -3 29 -9 31 -28 4 -79 32 -138 94 -200 112 -112 308
-116 418 -8 l29 28 48 -24 c27 -14 65 -25 84 -25 49 1 114 32 141 68 19 26 27
30 55 25 68 -11 138 33 169 108 8 20 13 39 11 41 -3 3 6 15 20 28 32 30 32 60
0 90 -14 13 -25 29 -25 36 0 6 -6 17 -14 23 -9 8 -14 32 -14 70 0 85 -49 164
-127 209 -10 5 -21 30 -26 58 -5 27 -12 57 -15 67 -5 15 2 17 45 17 28 0 51 4
51 8 0 5 -25 7 -56 7 -46 -2 -58 2 -70 19 -14 20 -13 21 13 27 32 8 30 10 -13
13 -17 1 -42 13 -55 25 -46 44 -120 74 -189 77 -36 2 -78 0 -95 -5z"/>
<path d="M1145 1150 c-3 -5 3 -10 15 -10 12 0 18 5 15 10 -3 6 -10 10 -15 10
-5 0 -12 -4 -15 -10z"/>
</g>
</svg>
